# xmcd
#
# Track frame offsets: 
#        150
#        17937
#        32942
#        53126
#        72440
#        90066
#        104288
#        120852
#        137288
#        152988
#
# Disc length: 2354 seconds
#
# Revision: 0
# Processed by: cddbd v1.5.2PL0 Copyright (c) Steve Scherf et al.
# Submitted via: ExactAudioCopy v0.95a5
#
DISCID=7609300a
DTITLE=Stone Foxes - Small Fires
DYEAR=2013
DGENRE=Blues
TTITLE0=Everybody Knows 
TTITLE1=Ulysses Jones 
TTITLE2=So Much Better 
TTITLE3=Cotto 
TTITLE4=Small Fires 
TTITLE5=Battles, Blades and Bones 
TTITLE6=Cold Wind 
TTITLE7=Talk to Louise 
TTITLE8=Jump in the Water 
TTITLE9=Goodnight Moon 
EXTD=
EXTT0=
EXTT1=
EXTT2=
EXTT3=
EXTT4=
EXTT5=
EXTT6=
EXTT7=
EXTT8=
EXTT9=
PLAYORDER=
